<?xml version="1.0" encoding="utf-8"?>
<!-- Generator: Adobe Adobe Illustrator 29.2.0, SVG Export Plug-In . SVG Version: 6.00 Build 0)  -->
<svg version="1.1" id="Layer_1" xmlns="http://www.w3.org/2000/svg" xmlns:xlink="http://www.w3.org/1999/xlink" x="0px" y="0px"
	 width="873.95px" height="68.68px" viewBox="0 0 873.95 68.68" style="enable-background:new 0 0 873.95 68.68;"
	 xml:space="preserve">
<style type="text/css">
	.st0{fill:url(#SVGID_1_);}
	.st1{fill:url(#SVGID_00000124147891597056422070000012096044134025742772_);}
	.st2{fill:url(#SVGID_00000011715847408288379670000007429306543675670461_);}
	.st3{fill:url(#SVGID_00000042727533025138089280000006504921354141697468_);}
	.st4{fill:url(#SVGID_00000151520096124585323430000008156865770790577812_);}
	.st5{fill:url(#SVGID_00000051381114423891911170000014640557111196205237_);}
	.st6{fill:url(#SVGID_00000011719572665314182880000017325008421998563209_);}
	.st7{fill:url(#SVGID_00000038381473747296114490000000001131942089655952_);}
	.st8{fill:url(#SVGID_00000096777089112731540640000008256197643291596712_);}
	.st9{fill:#673EBB;}
	.st10{fill:#AD8FCC;}
	.st11{fill:#FFFFFF;stroke:#AD8FCC;stroke-miterlimit:10;}
	.st12{clip-path:url(#SVGID_00000171709600241849685510000002809352453937161658_);}
	.st13{fill:#6C31E3;}
	.st14{fill:url(#SVGID_00000010293496956298129490000003943394364064075941_);}
	.st15{fill:url(#SVGID_00000095305557625058320310000002114779678493641381_);}
	.st16{fill:url(#SVGID_00000115484513380604215500000001941081349323858825_);}
	.st17{fill:url(#SVGID_00000152256283932932842140000016799613397060499357_);}
	.st18{fill-rule:evenodd;clip-rule:evenodd;fill:url(#SVGID_00000126293028390214966660000009914582812299685038_);}
	.st19{fill-rule:evenodd;clip-rule:evenodd;fill:url(#SVGID_00000161614187510480838090000008032236630556358296_);}
	.st20{fill-rule:evenodd;clip-rule:evenodd;fill:url(#SVGID_00000004541349097454371180000004195814066673777061_);}
	.st21{fill-rule:evenodd;clip-rule:evenodd;fill:url(#SVGID_00000166675667842463296600000016231589564731457932_);}
</style>
<linearGradient id="SVGID_1_" gradientUnits="userSpaceOnUse" x1="22.5346" y1="39.2946" x2="42.1213" y2="39.2946">
	<stop  offset="0" style="stop-color:#AB8AEF"/>
	<stop  offset="1" style="stop-color:#7C49E6"/>
</linearGradient>
<path class="st0" d="M9.98,14.61l-2.74,6.85c-0.12,0.3-0.2,0.62-0.23,0.95L5.88,33.55c-0.05,0.53,0.01,1.06,0.19,1.55l2.51,6.91
	c1.15,3.15,1.73,6.49,1.73,9.84v3.64c0,1.66,1.17,3.1,2.8,3.44l8.47,1.74c1.23,0.25,2.44,0.58,3.62,0.99l12.49,4.32
	c0.85,0.3,1.79,0.25,2.61-0.13l11.04-5.07c0.87-0.4,1.53-1.13,1.85-2.03l4.74-13.56c0.48-1.37,0.06-2.89-1.04-3.83l-2.43-2.07
	c-2.49-2.11-4.6-4.63-6.24-7.45l-0.14-0.25c-0.75-1.29-2.24-1.96-3.7-1.68l-0.06,0.01c-4.53,0.89-9.2,0.67-13.63-0.63l-0.43-0.13
	c-1.86-0.55-3.39-1.9-4.15-3.68l-2.65-6.17c-0.26-0.61-0.69-1.13-1.24-1.51l-7-4.81C13.37,11.75,10.81,12.53,9.98,14.61z"/>
<linearGradient id="SVGID_00000139261890660091348430000017887995845903382928_" gradientUnits="userSpaceOnUse" x1="21.0702" y1="34.9804" x2="-11.8327" y2="14.8255">
	<stop  offset="0" style="stop-color:#5B2ABD"/>
	<stop  offset="0.4706" style="stop-color:#8F69DA"/>
	<stop  offset="0.8194" style="stop-color:#B091EC"/>
	<stop  offset="1" style="stop-color:#BDA0F3"/>
</linearGradient>
<path style="fill:url(#SVGID_00000139261890660091348430000017887995845903382928_);" d="M9.81,46.46l0.62-0.71
	c3.09-3.55,7.37-5.84,12.04-6.46l0.02,0c0,0-2.45-3.5-1.91-7.58c0.64-4.85,5.2-7,5.2-7l-2.31-5.37c-0.26-0.61-0.69-1.13-1.24-1.51
	l-7-4.81c-1.85-1.27-4.41-0.5-5.24,1.59l-2.74,6.85c-0.12,0.3-0.2,0.62-0.23,0.95L5.88,33.55c-0.05,0.53,0.01,1.06,0.19,1.55
	l2.51,6.91C9.11,43.46,9.52,44.95,9.81,46.46z"/>
<linearGradient id="SVGID_00000028287064080539218970000008989622834986289340_" gradientUnits="userSpaceOnUse" x1="18.0858" y1="13.5306" x2="28.3062" y2="7.8841">
	<stop  offset="0" style="stop-color:#7046C6"/>
	<stop  offset="1" style="stop-color:#5023AA"/>
</linearGradient>
<path style="fill:url(#SVGID_00000028287064080539218970000008989622834986289340_);" d="M21,8.61l1.31-3.43
	c0.78-2.05,3.03-3.14,5.13-2.49l5.51,1.71c4.02,1.25,3.86,6.99-0.22,8.01l-6.82,1.71C22.63,14.95,19.79,11.75,21,8.61z"/>
<g>
	
		<linearGradient id="SVGID_00000038383255199470041450000009926099781789561989_" gradientUnits="userSpaceOnUse" x1="36.4093" y1="66.585" x2="33.5002" y2="44.1631">
		<stop  offset="0" style="stop-color:#8960DC"/>
		<stop  offset="1" style="stop-color:#5728B5"/>
	</linearGradient>
	<path style="fill:url(#SVGID_00000038383255199470041450000009926099781789561989_);" d="M57.94,45.21l-4.73,13.56
		c-0.31,0.9-0.98,1.63-1.85,2.03l-11.04,5.07c-0.82,0.38-1.76,0.42-2.61,0.13l-12.49-4.32c-1.18-0.41-2.39-0.74-3.62-0.99
		l-8.47-1.74c-1.63-0.34-2.8-1.77-2.8-3.44v-3.64c0-0.91-0.04-1.81-0.13-2.71c-0.09-0.9-0.21-1.79-0.38-2.68l0.62-0.71
		c5.19-5.95,12.05-6.46,12.05-6.46l0.93,0.21c8.16,1.81,16.69-0.5,22.81-6.19l1.85-1.72c0,0.01,0.01,0.01,0.01,0.01l0.15,0.25
		c1.64,2.82,3.75,5.34,6.24,7.45l2.43,2.07C58.01,42.31,58.42,43.84,57.94,45.21z"/>
</g>
<g>
	
		<linearGradient id="SVGID_00000025402538545057624090000003445103121777213876_" gradientUnits="userSpaceOnUse" x1="49.363" y1="30.8325" x2="44.2692" y2="54.4502">
		<stop  offset="0" style="stop-color:#804EE7"/>
		<stop  offset="1" style="stop-color:#B9A1ED"/>
	</linearGradient>
	<path style="fill:url(#SVGID_00000025402538545057624090000003445103121777213876_);" d="M56.9,41.38l-2.43-2.07
		c-2.49-2.11-4.6-4.63-6.24-7.45l-0.15-0.25c0,0-0.01-0.01-0.01-0.01l-1.85,1.72c-2.99,2.77-6.55,4.74-10.36,5.82l2.29,3.39
		c3.34,4.93,8,8.81,13.44,11.21l2.91,1.28l3.42-9.81C58.42,43.84,58.01,42.31,56.9,41.38z"/>
</g>
<g>
	
		<linearGradient id="SVGID_00000141455577452234770940000018372208871515689623_" gradientUnits="userSpaceOnUse" x1="10.6218" y1="58.1835" x2="35.0681" y2="41.1196">
		<stop  offset="0" style="stop-color:#7D53D1"/>
		<stop  offset="1" style="stop-color:#40139C"/>
	</linearGradient>
	<path style="fill:url(#SVGID_00000141455577452234770940000018372208871515689623_);" d="M24.82,61.53
		c4.82-6.21,7.41-13.83,7.42-21.65c-2.9,0.38-5.89,0.27-8.82-0.38l-0.93-0.21c0,0-6.87,0.5-12.05,6.46l-0.62,0.71
		c0.17,0.89,0.3,1.78,0.38,2.68c0.09,0.9,0.13,1.8,0.13,2.71v3.64c0,1.67,1.17,3.1,2.8,3.44l8.47,1.74
		C22.69,60.9,23.76,61.19,24.82,61.53z"/>
</g>
<g>
	
		<linearGradient id="SVGID_00000098899861423046433990000004141735678022875322_" gradientUnits="userSpaceOnUse" x1="10.8019" y1="16.9746" x2="21.0068" y2="27.8748">
		<stop  offset="0" style="stop-color:#7E4BE6"/>
		<stop  offset="1" style="stop-color:#C5AEF2"/>
	</linearGradient>
	<path style="fill:url(#SVGID_00000098899861423046433990000004141735678022875322_);" d="M25.77,24.72l-2.31-5.37
		c-0.26-0.61-0.69-1.13-1.24-1.51l-7-4.81c-0.85-0.59-1.86-0.74-2.77-0.53l2.01,4.56c1.08,2.46,1.33,5.21,0.7,7.82l-0.02,0.08
		c-1.32,5.45,1.23,11.1,6.19,13.73l1.14,0.61l0.02,0c0,0-2.45-3.5-1.91-7.58C21.21,26.87,25.77,24.72,25.77,24.72z"/>
</g>
<g>
	
		<linearGradient id="SVGID_00000180354129114041494850000014454566438320770230_" gradientUnits="userSpaceOnUse" x1="25.7607" y1="7.3875" x2="39.7685" y2="11.2343">
		<stop  offset="0" style="stop-color:#D6C9F0"/>
		<stop  offset="1" style="stop-color:#8F61EA"/>
	</linearGradient>
	<path style="fill:url(#SVGID_00000180354129114041494850000014454566438320770230_);" d="M32.94,4.4l-5.51-1.71
		c-1.41-0.44-2.89-0.09-3.95,0.82c4.22,1.45,6.36,5.87,5.36,9.89l3.88-0.98C36.8,11.39,36.96,5.65,32.94,4.4z"/>
</g>
<g>
	
		<linearGradient id="SVGID_00000150787031416921006970000013687780238163274381_" gradientUnits="userSpaceOnUse" x1="32.6874" y1="2.9365" x2="19.5685" y2="9.2714">
		<stop  offset="0" style="stop-color:#C1ADED"/>
		<stop  offset="1" style="stop-color:#6A41BF"/>
	</linearGradient>
	<path style="fill:url(#SVGID_00000150787031416921006970000013687780238163274381_);" d="M31.97,4.32L32,4.11l-4.57-1.42
		c-2.1-0.65-4.34,0.44-5.13,2.49L21,8.61c-0.52,1.37-0.28,2.75,0.43,3.8l1.22-2.02c1.02-1.69,3.12-2.62,5.31-2.59
		C29.98,7.82,31.71,6.33,31.97,4.32z"/>
</g>
<g>
	<path class="st9" d="M92.97,15.35h16.23c8.68,0,13.28,5.46,13.28,12.27c0,7.45-5.25,12.69-13.93,12.69h-6.43v12.53h-9.16V15.35z
		 M102.13,22.96v10.28h5.14c4.34,0,6.27-2.2,6.27-5.14c0-3-1.93-5.14-6.27-5.14H102.13z"/>
	<path class="st9" d="M140.43,53.33c-9.16,0-15.32-5.57-15.32-13.71c0-8.2,6.11-13.93,13.44-13.93c8.57,0,13.02,6.05,13.02,13.71
		c0,0.38,0,1.55-0.05,1.98h-18.27c0.75,3.7,3.53,5.57,8.09,5.57c3.59,0,7.23-1.18,9.48-2.68v6.27
		C148.14,52.31,144.23,53.33,140.43,53.33z M133.3,36.35h10.55c-0.64-2.73-2.46-4.55-5.25-4.55
		C136.03,31.8,134.05,33.46,133.3,36.35z"/>
	<path class="st9" d="M171.76,48.83c-2.09,2.79-5.19,4.45-9.11,4.45c-4.88,0-7.87-2.73-7.87-7.07c0-3.91,2.46-6.7,8.89-8.25
		l7.66-1.87c-0.32-2.62-1.93-3.59-4.88-3.64c-3.11,0-6.05,1.07-9.21,3.21v-7.02c2.95-1.87,6.43-3,10.61-3
		c7.61,0,11.68,3.27,11.68,10.07v10.02c0,1.07,0.7,1.66,1.82,1.66c0.86,0,1.23-0.11,1.82-0.32v5.3c-1.45,0.59-3,0.75-4.5,0.75
		C174.6,53.12,172.4,51.46,171.76,48.83z M165.65,47.44c2.2,0,4.34-1.18,5.73-2.95v-3.48l-5.57,1.45c-2.14,0.54-3.05,1.5-3.05,2.84
		C162.76,46.47,163.67,47.44,165.65,47.44z"/>
	<path class="st9" d="M195.81,37.53v15.32h-8.52V26.12h8.36v4.5c2.25-3.59,5.62-5.03,9-5.03c0.86,0,1.55,0.11,2.36,0.27v8.2
		c-0.91-0.27-1.98-0.54-3.53-0.54C200.36,33.51,197.3,34.85,195.81,37.53z"/>
</g>
<g>
	<path class="st10" d="M250.69,13.43h4.59c3.17,0,4.92,1.81,4.92,4.28c0,2.61-1.89,4.36-5.04,4.36h-2.82v5.76h-1.65V13.43z
		 M252.33,14.83v5.84h2.65c2.37,0,3.58-1.17,3.58-2.9c0-1.79-1.19-2.94-3.58-2.94H252.33z"/>
	<path class="st10" d="M264.1,21.78v6.05h-1.56v-9.54h1.52v1.81c0.72-1.38,1.95-2.02,3.35-2.02c0.39,0,0.76,0.06,1.09,0.16v1.6
		c-0.39-0.14-0.82-0.23-1.3-0.23C265.81,19.62,264.58,20.45,264.1,21.78z"/>
	<path class="st10" d="M274.68,18.08c2.74,0,4.9,2.14,4.9,4.96c0,2.84-2.24,5-4.96,5c-2.69,0-4.9-2.16-4.9-4.94
		C269.72,20.22,271.94,18.08,274.68,18.08z M274.64,19.42c-1.91,0-3.35,1.58-3.35,3.64c0,2.04,1.44,3.64,3.35,3.64
		c1.91,0,3.37-1.58,3.37-3.64C278.01,21.02,276.55,19.42,274.64,19.42z"/>
	<path class="st10" d="M289.67,26.45c-0.8,1.03-2,1.58-3.39,1.58c-2.76,0-4.79-2.12-4.79-4.94s2.12-5.02,4.83-5.02
		c1.34,0,2.51,0.49,3.33,1.42v-6.38l1.54-0.25v14.95h-1.52V26.45z M286.59,26.72c1.32,0,2.41-0.66,3.06-1.71v-3.89
		c-0.62-1.03-1.71-1.73-3.11-1.73c-2.08,0-3.5,1.56-3.5,3.66C283.05,25.18,284.57,26.72,286.59,26.72z"/>
	<path class="st10" d="M301.26,26.47c-0.7,0.99-1.83,1.56-3.19,1.56c-2.37,0-3.6-1.58-3.6-3.76v-5.99h1.56v5.78
		c0,1.5,0.8,2.61,2.45,2.61c1.28,0,2.18-0.66,2.74-1.56v-6.83h1.56v9.54h-1.52V26.47z"/>
	<path class="st10" d="M305.41,23.08c0-2.92,2.32-5,5.1-5c1.21,0,2.39,0.31,3.15,0.95v1.6c-0.82-0.72-1.85-1.19-3.09-1.19
		c-2.06,0-3.62,1.54-3.62,3.62c0,2.12,1.56,3.64,3.62,3.64c1.25,0,2.24-0.45,3.09-1.21v1.52c-0.84,0.68-1.97,1.03-3.15,1.03
		C307.72,28.04,305.41,26,305.41,23.08z"/>
	<path class="st10" d="M319.87,27.93c-1.97,0-2.92-1.03-2.92-2.76v-5.64h-1.83v-1.25h1.83v-2.22l1.54-0.25v2.47h3.46v1.25h-3.46
		v5.33c0,1.07,0.47,1.71,1.67,1.71c0.68,0,1.32-0.14,1.87-0.37v1.3C321.44,27.77,320.66,27.93,319.87,27.93z"/>
	<path class="st10" d="M323.87,14.77c0-0.6,0.47-1.05,1.07-1.05c0.58,0,1.05,0.45,1.05,1.05c0,0.58-0.47,1.05-1.05,1.05
		C324.34,15.82,323.87,15.35,323.87,14.77z M324.15,18.29h1.56v9.54h-1.56V18.29z"/>
	<path class="st10" d="M333.04,27.83h-1.44l-4.01-9.54h1.67l3.11,7.65l3.09-7.65h1.62L333.04,27.83z"/>
	<path class="st10" d="M338.68,14.77c0-0.6,0.47-1.05,1.07-1.05c0.58,0,1.05,0.45,1.05,1.05c0,0.58-0.47,1.05-1.05,1.05
		C339.15,15.82,338.68,15.35,338.68,14.77z M338.97,18.29h1.56v9.54h-1.56V18.29z"/>
	<path class="st10" d="M347.46,27.93c-1.97,0-2.92-1.03-2.92-2.76v-5.64h-1.83v-1.25h1.83v-2.22l1.54-0.25v2.47h3.46v1.25h-3.46
		v5.33c0,1.07,0.47,1.71,1.67,1.71c0.68,0,1.32-0.14,1.87-0.37v1.3C349.03,27.77,348.24,27.93,347.46,27.93z"/>
	<path class="st10" d="M351.29,32.27c-0.64,0-1.09-0.1-1.48-0.27v-1.4c0.37,0.16,0.88,0.31,1.42,0.31c0.93,0,2-0.51,2.76-2.45
		l0.19-0.49l-3.83-9.69h1.65l3,7.8l3.02-7.8h1.6l-4.4,10.78C354.31,31.29,352.89,32.27,351.29,32.27z"/>
	<path class="st10" d="M254.25,52.52v-13h-4.96v-1.4h11.56v1.4h-4.96v13H254.25z"/>
	<path class="st10" d="M276.61,45.32c0,4.22-3.27,7.4-7.43,7.4c-4.13,0-7.38-3.15-7.38-7.38c0-4.22,3.29-7.43,7.43-7.43
		C273.38,37.91,276.61,41.06,276.61,45.32z M263.44,45.34c0,3.25,2.47,5.94,5.76,5.94c3.31,0,5.76-2.67,5.76-5.96
		c0-3.27-2.45-5.96-5.76-5.96C265.91,39.35,263.44,41.99,263.44,45.34z"/>
	<path class="st10" d="M279.68,38.12h4.96c4.01,0,7.2,3.06,7.2,7.2s-3.27,7.2-7.3,7.2h-4.85V38.12z M281.32,39.54v11.58h3.17
		c3.21,0,5.68-2.43,5.68-5.8c0-3.31-2.49-5.78-5.68-5.78H281.32z"/>
	<path class="st10" d="M308.99,45.32c0,4.22-3.27,7.4-7.43,7.4c-4.13,0-7.38-3.15-7.38-7.38c0-4.22,3.29-7.43,7.43-7.43
		C305.76,37.91,308.99,41.06,308.99,45.32z M295.83,45.34c0,3.25,2.47,5.94,5.76,5.94c3.31,0,5.76-2.67,5.76-5.96
		c0-3.27-2.45-5.96-5.76-5.96C298.29,39.35,295.83,41.99,295.83,45.34z"/>
	<path class="st10" d="M321.27,46.18v3.99h-1.46v-3.99h-3.85v-1.3h3.85v-4.05h1.46v4.05h3.85v1.3H321.27z"/>
	<path class="st10" d="M332.8,38.12h4.38c3.06,0,4.75,1.62,4.75,4.11c0,2.1-1.56,3.68-3.91,4.01l5.16,6.27h-2.04l-4.98-6.19h-1.73
		v6.19h-1.65V38.12z M334.44,39.52v5.43h2.53c2.16,0,3.31-1.03,3.31-2.69c0-1.69-1.11-2.74-3.29-2.74H334.44z"/>
	<path class="st10" d="M348.8,52.72c-2.92,0-5.02-2.06-5.02-4.98s2.2-4.98,4.63-4.98c2.63,0,4.34,1.95,4.34,4.87v0.27h-7.45
		c0.12,2.08,1.48,3.52,3.64,3.52c1.28,0,2.69-0.49,3.56-1.3v1.42C351.7,52.21,350.34,52.72,348.8,52.72z M345.41,46.7h5.78
		c-0.23-1.58-1.28-2.63-2.8-2.63C346.93,44.06,345.74,45.11,345.41,46.7z"/>
	<path class="st10" d="M358.45,48.61l-1.79-0.72c-1.28-0.51-1.97-1.3-1.97-2.39c0-1.65,1.32-2.71,3.19-2.71
		c1.11,0,2.1,0.31,2.82,0.78v1.54c-1.01-0.76-1.93-1.07-2.86-1.07c-1.13,0-1.71,0.54-1.71,1.28c0,0.54,0.33,0.97,1.25,1.36
		l1.91,0.78c1.48,0.6,2.04,1.4,2.04,2.49c0,1.44-1.11,2.76-3.41,2.76c-1.17,0-2.28-0.31-3.21-0.93v-1.54
		c1.05,0.76,2.06,1.23,3.19,1.23c1.3,0,1.95-0.58,1.95-1.38C359.85,49.47,359.54,49.06,358.45,48.61z"/>
	<path class="st10" d="M368.28,52.72c-2.92,0-5.02-2.06-5.02-4.98s2.2-4.98,4.63-4.98c2.63,0,4.34,1.95,4.34,4.87v0.27h-7.45
		c0.12,2.08,1.48,3.52,3.64,3.52c1.28,0,2.69-0.49,3.56-1.3v1.42C371.18,52.21,369.83,52.72,368.28,52.72z M364.89,46.7h5.78
		c-0.23-1.58-1.28-2.63-2.8-2.63C366.41,44.06,365.22,45.11,364.89,46.7z"/>
	<path class="st10" d="M380.46,50.83c-0.82,1.17-2.24,1.85-3.6,1.85c-1.85,0-2.84-1.03-2.84-2.51c0-1.38,0.82-2.32,3.13-2.94
		l3.29-0.86c-0.08-1.62-0.82-2.24-2.34-2.26c-1.15,0-2.2,0.43-3.15,1.13v-1.5c0.93-0.6,2.02-0.97,3.33-0.97c2.53,0,3.7,1.25,3.7,3.7
		v4.2c0,0.51,0.29,0.76,0.82,0.76c0.25,0,0.43-0.02,0.68-0.12v1.11c-0.29,0.14-0.68,0.21-1.07,0.21
		C381.12,52.62,380.46,51.96,380.46,50.83z M377.27,51.43c1.34,0,2.59-0.9,3.17-1.89v-2l-2.98,0.8c-1.48,0.41-1.89,0.99-1.89,1.77
		C375.57,50.85,376.12,51.43,377.27,51.43z"/>
	<path class="st10" d="M387.27,46.47v6.05h-1.56v-9.54h1.52v1.81c0.72-1.38,1.95-2.02,3.35-2.02c0.39,0,0.76,0.06,1.09,0.16v1.6
		c-0.39-0.14-0.82-0.23-1.3-0.23C388.98,44.31,387.75,45.13,387.27,46.47z"/>
	<path class="st10" d="M392.89,47.77c0-2.92,2.32-5,5.1-5c1.21,0,2.39,0.31,3.15,0.95v1.6c-0.82-0.72-1.85-1.19-3.09-1.19
		c-2.06,0-3.62,1.54-3.62,3.62c0,2.12,1.56,3.64,3.62,3.64c1.25,0,2.24-0.45,3.09-1.21v1.52c-0.84,0.68-1.97,1.03-3.15,1.03
		C395.19,52.72,392.89,50.69,392.89,47.77z"/>
	<path class="st10" d="M405.19,45.69v6.83h-1.56V37.81l1.56-0.25v6.71c0.7-0.95,1.83-1.5,3.15-1.5c2.37,0,3.6,1.58,3.6,3.76v5.99
		h-1.56v-5.78c0-1.5-0.82-2.61-2.45-2.61C406.67,44.13,405.75,44.81,405.19,45.69z"/>
</g>
<line class="st11" x1="230.03" y1="12.41" x2="230.03" y2="55.01"/>
<g>
	<g>
		<defs>
			<rect id="SVGID_00000170994367909212804230000010583162969491110276_" x="633.94" y="36.42" width="24.08" height="24.08"/>
		</defs>
		<clipPath id="SVGID_00000015312868079138120580000003239824635261701004_">
			<use xlink:href="#SVGID_00000170994367909212804230000010583162969491110276_"  style="overflow:visible;"/>
		</clipPath>
		<g style="clip-path:url(#SVGID_00000015312868079138120580000003239824635261701004_);">
			<path class="st13" d="M651.91,58.77c-0.15,1.1-1.22,1.96-2.29,1.66c-1.52-0.42-3.29-1.07-4.87-1.19l-2.43-0.19
				c-0.39-0.03-0.76-0.2-1.03-0.48l-4.19-4.31c-0.46-0.47-0.58-1.17-0.32-1.77c0,0,2.59-5.69,2.69-5.99
				c0.09-0.3,0.45-2.88,0.66-4.26c0.06-0.37,0.24-0.71,0.52-0.95l4.95-4.46c0.66-0.59,1.67-0.54,2.26,0.12
				c0.02,0.03,0.05,0.05,0.07,0.08l4.16,5.29c0.23,0.3,0.36,0.67,0.36,1.05c0,1,0.08,3.06,0.64,4.38c0.54,1.28,1.53,2.68,2.05,3.36
				c0.2,0.26,0.23,0.62,0.06,0.9c-0.67,1.13-1.37,2.23-2.11,3.32C652.37,56.38,652.05,57.68,651.91,58.77L651.91,58.77z"/>
			
				<radialGradient id="SVGID_00000065754981670950193590000011814983889968756916_" cx="-7.4897" cy="63.414" r="0.7174" gradientTransform="matrix(-3.8683 -14.7522 -9.8348 2.557 1236.2169 -214.1366)" gradientUnits="userSpaceOnUse">
				<stop  offset="0" style="stop-color:#FFFFFF;stop-opacity:0.4"/>
				<stop  offset="1" style="stop-color:#000000;stop-opacity:0.1"/>
			</radialGradient>
			<path style="fill:url(#SVGID_00000065754981670950193590000011814983889968756916_);" d="M641.73,58.9
				c1.95-3.95,1.89-6.78,1.06-8.79c-0.76-1.86-2.18-3.03-3.29-3.76c-0.03,0.11-0.06,0.21-0.1,0.31l-2.62,5.84
				c-0.27,0.6-0.15,1.3,0.31,1.77l4.19,4.31C641.41,58.71,641.56,58.82,641.73,58.9L641.73,58.9z"/>
			
				<radialGradient id="SVGID_00000059296155880666212830000018197153418706583730_" cx="-3.5045" cy="63.8575" r="0.7172" gradientTransform="matrix(3.2783 -24.8492 -18.3583 -2.4259 1834.6617 121.8298)" gradientUnits="userSpaceOnUse">
				<stop  offset="0" style="stop-color:#FFFFFF;stop-opacity:0.6"/>
				<stop  offset="1" style="stop-color:#FFFFFF;stop-opacity:0.1"/>
			</radialGradient>
			<path style="fill:url(#SVGID_00000059296155880666212830000018197153418706583730_);" d="M647.02,50.88
				c0.53,0.06,1.04,0.17,1.54,0.36c1.6,0.6,3.06,1.94,4.26,4.53c0.08-0.15,0.17-0.29,0.26-0.43c0.73-1.09,1.43-2.19,2.11-3.32
				c0.17-0.28,0.14-0.64-0.06-0.9c-0.52-0.69-1.5-2.08-2.05-3.36c-0.55-1.33-0.63-3.39-0.64-4.38c0-0.38-0.12-0.75-0.36-1.05
				l-4.16-5.29c-0.02-0.03-0.05-0.05-0.07-0.08c0.27,0.82,0.31,1.7,0.09,2.54c-0.2,0.68-0.48,1.33-0.83,1.94l-0.34,0.67
				c-0.54,1.03-0.85,2.17-0.91,3.34C645.81,46.82,646.1,48.56,647.02,50.88z"/>
			
				<radialGradient id="SVGID_00000139993798395306844760000015012571641789947813_" cx="-3.7768" cy="61.8539" r="0.7172" gradientTransform="matrix(4.524 -20.9153 -14.2932 -3.0816 1543.3564 162.4565)" gradientUnits="userSpaceOnUse">
				<stop  offset="0" style="stop-color:#FFFFFF;stop-opacity:0.8"/>
				<stop  offset="1" style="stop-color:#FFFFFF;stop-opacity:0.4"/>
			</radialGradient>
			<path style="fill:url(#SVGID_00000139993798395306844760000015012571641789947813_);" d="M647.02,50.88
				c-0.93-2.32-1.21-4.06-1.15-5.45c0.06-1.17,0.37-2.31,0.91-3.34c0.11-0.23,0.23-0.45,0.34-0.66c0.33-0.65,0.66-1.27,0.83-1.95
				c0.21-0.84,0.18-1.72-0.09-2.54c-0.59-0.65-1.61-0.71-2.26-0.11l-4.96,4.46c-0.28,0.25-0.46,0.59-0.51,0.95l-0.6,4l-0.02,0.11
				c1.12,0.73,2.54,1.9,3.3,3.76c0.16,0.38,0.28,0.77,0.37,1.17C644.48,50.96,645.78,50.76,647.02,50.88L647.02,50.88z"/>
			
				<radialGradient id="SVGID_00000099621654168572101080000010501700889374180259_" cx="-9.8644" cy="67.4211" r="0.7172" gradientTransform="matrix(-6.2943 -10.6871 -12.2607 7.2777 1414.2393 -535.6044)" gradientUnits="userSpaceOnUse">
				<stop  offset="0" style="stop-color:#FFFFFF;stop-opacity:0.3"/>
				<stop  offset="1" style="stop-color:#000000;stop-opacity:0.3"/>
			</radialGradient>
			<path style="fill:url(#SVGID_00000099621654168572101080000010501700889374180259_);" d="M649.62,60.44
				c1.07,0.29,2.14-0.56,2.29-1.66c0.12-1.05,0.43-2.07,0.91-3c-1.2-2.59-2.66-3.93-4.25-4.53c-1.69-0.63-3.54-0.42-5.41,0.03
				c0.42,1.9,0.17,4.39-1.43,7.63c0.19,0.08,0.38,0.14,0.59,0.16c0,0,1.15,0.09,2.52,0.19C646.2,59.34,648.24,60.05,649.62,60.44
				L649.62,60.44z"/>
			<g>
				
					<radialGradient id="SVGID_00000175282169793628669910000016071227751176387771_" cx="7.6062" cy="81.7554" r="0.7172" gradientTransform="matrix(-2.3603 10.8838 7.3433 1.5736 66.1063 -168.998)" gradientUnits="userSpaceOnUse">
					<stop  offset="0" style="stop-color:#FFFFFF;stop-opacity:0"/>
					<stop  offset="1" style="stop-color:#FFFFFF;stop-opacity:0.2"/>
				</radialGradient>
				<path style="fill-rule:evenodd;clip-rule:evenodd;fill:url(#SVGID_00000175282169793628669910000016071227751176387771_);" d="
					M645.88,45.34c-0.06,1.37,0.11,2.95,1.04,5.27l-0.29-0.02c-0.83-2.42-1.01-3.67-0.95-5.06c0.07-1.18,0.4-2.34,0.96-3.39
					c0.11-0.23,0.38-0.66,0.49-0.88c0.33-0.64,0.56-0.99,0.75-1.58c0.27-0.82,0.21-1.22,0.18-1.6c0.22,1.41-0.6,2.63-1.21,3.87
					C646.29,43,645.96,44.15,645.88,45.34L645.88,45.34z"/>
				
					<radialGradient id="SVGID_00000029749467185700897920000016295230311656249500_" cx="15.8143" cy="67.9196" r="0.7172" gradientTransform="matrix(5.7697 5.8353 12.4574 -12.2607 -298.1953 787.2216)" gradientUnits="userSpaceOnUse">
					<stop  offset="0" style="stop-color:#FFFFFF;stop-opacity:0.2"/>
					<stop  offset="1" style="stop-color:#FFFFFF;stop-opacity:0.4"/>
				</radialGradient>
				<path style="fill-rule:evenodd;clip-rule:evenodd;fill:url(#SVGID_00000029749467185700897920000016295230311656249500_);" d="
					M643.07,50.2c0.11,0.25,0.22,0.46,0.28,0.78l-0.25,0.05c-0.1-0.37-0.18-0.63-0.32-0.94c-0.84-1.98-2.18-2.99-3.28-3.74
					C640.83,47.07,642.19,48.19,643.07,50.2L643.07,50.2z"/>
				
					<radialGradient id="SVGID_00000034794071285099343730000016647313007494520766_" cx="12.4031" cy="72.6889" r="0.7172" gradientTransform="matrix(0.5901 8.5235 18.096 -1.3113 -678.6568 39.3605)" gradientUnits="userSpaceOnUse">
					<stop  offset="0" style="stop-color:#FFFFFF;stop-opacity:0.2"/>
					<stop  offset="1" style="stop-color:#FFFFFF;stop-opacity:0.3"/>
				</radialGradient>
				<path style="fill-rule:evenodd;clip-rule:evenodd;fill:url(#SVGID_00000034794071285099343730000016647313007494520766_);" d="
					M643.36,51.22c0.46,2.16-0.06,4.9-1.58,7.57c1.27-2.64,1.89-5.18,1.38-7.52L643.36,51.22z"/>
				
					<radialGradient id="SVGID_00000172413161193073796800000004774432121468972439_" cx="-7.7278" cy="69.8008" r="0.7172" gradientTransform="matrix(-12.9819 -6.8188 -21.4398 40.8472 2048.9375 -2848.6814)" gradientUnits="userSpaceOnUse">
					<stop  offset="0" style="stop-color:#FFFFFF;stop-opacity:0.2"/>
					<stop  offset="0.5" style="stop-color:#FFFFFF;stop-opacity:0.2"/>
					<stop  offset="1" style="stop-color:#FFFFFF;stop-opacity:0.3"/>
				</radialGradient>
				<path style="fill-rule:evenodd;clip-rule:evenodd;fill:url(#SVGID_00000172413161193073796800000004774432121468972439_);" d="
					M648.63,51.03c2.5,0.94,3.46,2.99,4.18,4.7c-0.89-1.79-2.13-3.78-4.27-4.51c-1.64-0.55-3.01-0.49-5.37,0.05l-0.05-0.24
					C645.61,50.46,646.92,50.4,648.63,51.03z"/>
			</g>
		</g>
	</g>
</g>
<g>
	<path class="st10" d="M668.13,40.65h4.59c3.17,0,4.92,1.81,4.92,4.28c0,2.61-1.89,4.36-5.04,4.36h-2.82v5.76h-1.65V40.65z
		 M669.78,42.05v5.84h2.65c2.37,0,3.58-1.17,3.58-2.9c0-1.79-1.19-2.94-3.58-2.94H669.78z"/>
	<path class="st10" d="M683.83,45.3c2.74,0,4.9,2.14,4.9,4.96c0,2.84-2.24,5-4.96,5c-2.69,0-4.9-2.16-4.9-4.94
		C678.87,47.44,681.09,45.3,683.83,45.3z M683.79,46.64c-1.91,0-3.35,1.58-3.35,3.64c0,2.04,1.44,3.64,3.35,3.64
		s3.37-1.58,3.37-3.64C687.16,48.24,685.7,46.64,683.79,46.64z"/>
	<path class="st10" d="M697.3,47.62l-2.67,7.43h-1.34l-3.06-9.54h1.56l2.24,7.3l2.67-7.3h1.23l2.67,7.3l2.24-7.3h1.52l-3.06,9.54
		h-1.34L697.3,47.62z"/>
	<path class="st10" d="M710.92,55.25c-2.92,0-5.02-2.06-5.02-4.98s2.2-4.98,4.63-4.98c2.63,0,4.34,1.95,4.34,4.87v0.27h-7.45
		c0.12,2.08,1.48,3.52,3.64,3.52c1.28,0,2.69-0.49,3.56-1.3v1.42C713.82,54.74,712.47,55.25,710.92,55.25z M707.53,49.23h5.78
		c-0.23-1.58-1.27-2.63-2.8-2.63C709.05,46.6,707.86,47.64,707.53,49.23z"/>
	<path class="st10" d="M719.05,49v6.05h-1.56v-9.54h1.52v1.81c0.72-1.38,1.95-2.02,3.35-2.02c0.39,0,0.76,0.06,1.09,0.16v1.6
		c-0.39-0.14-0.82-0.23-1.3-0.23C720.76,46.84,719.52,47.66,719.05,49z"/>
	<path class="st10" d="M729.68,55.25c-2.92,0-5.02-2.06-5.02-4.98s2.2-4.98,4.63-4.98c2.63,0,4.34,1.95,4.34,4.87v0.27h-7.45
		c0.12,2.08,1.48,3.52,3.64,3.52c1.27,0,2.69-0.49,3.56-1.3v1.42C732.59,54.74,731.23,55.25,729.68,55.25z M726.29,49.23h5.78
		c-0.23-1.58-1.27-2.63-2.8-2.63C727.81,46.6,726.62,47.64,726.29,49.23z"/>
	<path class="st10" d="M743.72,53.67c-0.8,1.03-2,1.58-3.39,1.58c-2.76,0-4.79-2.12-4.79-4.94s2.12-5.02,4.83-5.02
		c1.34,0,2.51,0.49,3.33,1.42v-6.38l1.54-0.25v14.95h-1.52V53.67z M740.63,53.94c1.32,0,2.41-0.66,3.07-1.71v-3.89
		c-0.62-1.03-1.71-1.73-3.11-1.73c-2.08,0-3.5,1.56-3.5,3.66C737.09,52.4,738.61,53.94,740.63,53.94z"/>
	<path class="st10" d="M757.87,55.25c-1.36,0-2.53-0.49-3.35-1.44v1.23h-1.52V40.34l1.56-0.25v6.75c0.82-1.01,2-1.54,3.37-1.54
		c2.76,0,4.77,2.14,4.77,4.98C762.7,53.07,760.58,55.25,757.87,55.25z M754.56,48.28v3.99c0.62,0.99,1.71,1.69,3.11,1.69
		c2.06,0,3.48-1.56,3.48-3.66c0-2.12-1.52-3.68-3.52-3.68C756.31,46.62,755.22,47.25,754.56,48.28z"/>
	<path class="st10" d="M764.66,59.49c-0.64,0-1.09-0.1-1.48-0.27v-1.4c0.37,0.16,0.88,0.31,1.42,0.31c0.93,0,2-0.51,2.76-2.45
		l0.18-0.49l-3.83-9.69h1.65l3,7.8l3.02-7.8h1.6l-4.4,10.78C767.68,58.5,766.27,59.49,764.66,59.49z"/>
	<path class="st10" d="M793.67,47.85c0,4.22-3.27,7.4-7.43,7.4c-4.13,0-7.38-3.15-7.38-7.38c0-4.22,3.29-7.43,7.42-7.43
		C790.44,40.45,793.67,43.59,793.67,47.85z M780.5,47.87c0,3.25,2.47,5.94,5.76,5.94c3.31,0,5.76-2.67,5.76-5.97
		c0-3.27-2.45-5.96-5.76-5.96C782.97,41.89,780.5,44.52,780.5,47.87z"/>
	<path class="st10" d="M801.38,55.25c-1.36,0-2.53-0.49-3.35-1.44v1.23h-1.52V40.34l1.56-0.25v6.75c0.82-1.01,2-1.54,3.37-1.54
		c2.76,0,4.77,2.14,4.77,4.98C806.22,53.07,804.1,55.25,801.38,55.25z M798.07,48.28v3.99c0.62,0.99,1.71,1.69,3.11,1.69
		c2.06,0,3.48-1.56,3.48-3.66c0-2.12-1.52-3.68-3.52-3.68C799.82,46.62,798.73,47.25,798.07,48.28z"/>
	<path class="st10" d="M811.92,51.14l-1.79-0.72c-1.28-0.51-1.97-1.3-1.97-2.39c0-1.65,1.32-2.71,3.19-2.71
		c1.11,0,2.1,0.31,2.82,0.78v1.54c-1.01-0.76-1.93-1.07-2.86-1.07c-1.13,0-1.71,0.53-1.71,1.27c0,0.53,0.33,0.97,1.25,1.36
		l1.91,0.78c1.48,0.6,2.04,1.4,2.04,2.49c0,1.44-1.11,2.76-3.41,2.76c-1.17,0-2.28-0.31-3.21-0.93v-1.54
		c1.05,0.76,2.06,1.23,3.19,1.23c1.3,0,1.95-0.58,1.95-1.38C813.31,52,813.01,51.59,811.92,51.14z"/>
	<path class="st10" d="M817.14,41.99c0-0.6,0.47-1.05,1.07-1.05c0.58,0,1.05,0.45,1.05,1.05c0,0.58-0.47,1.05-1.05,1.05
		C817.62,43.04,817.14,42.56,817.14,41.99z M817.43,45.51h1.56v9.54h-1.56V45.51z"/>
	<path class="st10" d="M829.77,53.67c-0.8,1.03-2,1.58-3.39,1.58c-2.76,0-4.79-2.12-4.79-4.94s2.12-5.02,4.83-5.02
		c1.34,0,2.51,0.49,3.33,1.42v-6.38l1.54-0.25v14.95h-1.52V53.67z M826.69,53.94c1.32,0,2.41-0.66,3.07-1.71v-3.89
		c-0.62-1.03-1.71-1.73-3.11-1.73c-2.08,0-3.5,1.56-3.5,3.66C823.15,52.4,824.67,53.94,826.69,53.94z"/>
	<path class="st10" d="M834.34,41.99c0-0.6,0.47-1.05,1.07-1.05c0.58,0,1.05,0.45,1.05,1.05c0,0.58-0.47,1.05-1.05,1.05
		C834.81,43.04,834.34,42.56,834.34,41.99z M834.63,45.51h1.56v9.54h-1.56V45.51z"/>
	<path class="st10" d="M845.12,53.36c-0.82,1.17-2.24,1.85-3.6,1.85c-1.85,0-2.84-1.03-2.84-2.51c0-1.38,0.82-2.32,3.13-2.94
		l3.29-0.86c-0.08-1.62-0.82-2.24-2.34-2.26c-1.15,0-2.2,0.43-3.15,1.13v-1.5c0.93-0.6,2.02-0.97,3.33-0.97c2.53,0,3.7,1.25,3.7,3.7
		v4.2c0,0.51,0.29,0.76,0.82,0.76c0.25,0,0.43-0.02,0.68-0.12v1.11c-0.29,0.14-0.68,0.21-1.07,0.21
		C845.78,55.15,845.12,54.49,845.12,53.36z M841.93,53.96c1.34,0,2.59-0.9,3.17-1.89v-2l-2.98,0.8c-1.48,0.41-1.89,0.99-1.89,1.77
		C840.22,53.38,840.78,53.96,841.93,53.96z"/>
	<path class="st10" d="M851.93,48.22v6.83h-1.56v-9.54h1.52v1.34c0.7-0.97,1.85-1.54,3.19-1.54c2.37,0,3.6,1.58,3.6,3.76v5.99h-1.56
		v-5.78c0-1.5-0.82-2.61-2.45-2.61C853.41,46.66,852.49,47.34,851.93,48.22z"/>
</g>
</svg>
