<?xml version="1.0" encoding="utf-8"?>
<!-- Generator: Adobe Adobe Illustrator 29.2.0, SVG Export Plug-In . SVG Version: 6.00 Build 0)  -->
<svg version="1.1" id="Layer_1" xmlns="http://www.w3.org/2000/svg" xmlns:xlink="http://www.w3.org/1999/xlink" x="0px" y="0px"
	 width="64px" height="64px" viewBox="0 0 64 64" style="enable-background:new 0 0 64 64;" xml:space="preserve">
<style type="text/css">
	.st0{fill:url(#SVGID_1_);}
	.st1{fill:url(#SVGID_00000113339941183943363020000006763249680763259825_);}
	.st2{fill:url(#SVGID_00000011710672208903421780000015943357862378298515_);}
	.st3{fill:url(#SVGID_00000126324800210583667670000006483783548113163678_);}
	.st4{fill:url(#SVGID_00000145777810838958449170000014632727712293458596_);}
	.st5{fill:url(#SVGID_00000097492092072440911890000001316103045282791818_);}
	.st6{fill:url(#SVGID_00000134964524872035855310000014914695029132033942_);}
	.st7{fill:url(#SVGID_00000054240735678092875660000007832798218149548436_);}
	.st8{fill:url(#SVGID_00000115477988047254587620000004373693113510700213_);}
	.st9{fill:url(#SVGID_00000118365722582551582540000006839736053662138035_);}
	.st10{fill:url(#SVGID_00000069370004680947449360000016282624206683040393_);}
	.st11{fill:url(#SVGID_00000078037877202317699190000016490798744575151007_);}
	.st12{fill:url(#SVGID_00000029743561355530080730000007124068071955334572_);}
	.st13{fill:url(#SVGID_00000070092604068968419460000005901007495512272264_);}
	.st14{fill:url(#SVGID_00000069396782063794433980000013201050418223241624_);}
	.st15{fill:url(#SVGID_00000072258616652196639390000008722799782614641839_);}
	.st16{fill:url(#SVGID_00000082367049837739012130000008532242360944953525_);}
	.st17{fill:url(#SVGID_00000146496604103210888970000003351575896926210463_);}
	.st18{fill:#673EBB;}
	.st19{fill:#AD8FCC;}
	.st20{fill:#FFFFFF;stroke:#AD8FCC;stroke-miterlimit:10;}
	.st21{clip-path:url(#SVGID_00000154418849025345876600000017494728106763317642_);}
	.st22{fill:#6C31E3;}
	.st23{fill:url(#SVGID_00000005250964245861057850000003027223527760167608_);}
	.st24{fill:url(#SVGID_00000101824094977048155960000008379439934859415731_);}
	.st25{fill:url(#SVGID_00000031168630643878278050000017053632743146306734_);}
	.st26{fill:url(#SVGID_00000139257358913918586240000004414451348151047338_);}
	.st27{fill-rule:evenodd;clip-rule:evenodd;fill:url(#SVGID_00000129203874440252960540000007287668357188482745_);}
	.st28{fill-rule:evenodd;clip-rule:evenodd;fill:url(#SVGID_00000032647655779663073860000000336301622571934595_);}
	.st29{fill-rule:evenodd;clip-rule:evenodd;fill:url(#SVGID_00000070084608387072735460000012773249659031854230_);}
	.st30{fill-rule:evenodd;clip-rule:evenodd;fill:url(#SVGID_00000142134771422395643610000002123309634452266914_);}
</style>
<linearGradient id="SVGID_1_" gradientUnits="userSpaceOnUse" x1="22.5346" y1="36.9528" x2="42.1213" y2="36.9528">
	<stop  offset="0" style="stop-color:#AB8AEF"/>
	<stop  offset="1" style="stop-color:#7C49E6"/>
</linearGradient>
<path class="st0" d="M9.98,12.27l-2.74,6.85c-0.12,0.3-0.2,0.62-0.23,0.95L5.88,31.21c-0.05,0.53,0.01,1.06,0.19,1.55l2.51,6.91
	c1.15,3.15,1.73,6.49,1.73,9.84v3.64c0,1.66,1.17,3.1,2.8,3.44l8.47,1.74c1.23,0.25,2.44,0.58,3.62,0.99l12.49,4.32
	c0.85,0.3,1.79,0.25,2.61-0.13l11.04-5.07c0.87-0.4,1.53-1.13,1.85-2.03l4.74-13.56c0.48-1.37,0.06-2.89-1.04-3.83l-2.43-2.07
	c-2.49-2.11-4.6-4.63-6.24-7.45l-0.14-0.25c-0.75-1.29-2.24-1.96-3.7-1.68l-0.06,0.01c-4.53,0.89-9.2,0.67-13.63-0.63l-0.43-0.13
	c-1.86-0.55-3.39-1.9-4.15-3.68L23.46,17c-0.26-0.61-0.69-1.13-1.24-1.51l-7-4.81C13.37,9.41,10.81,10.18,9.98,12.27z"/>
<linearGradient id="SVGID_00000008107816854013699660000002742430099907469186_" gradientUnits="userSpaceOnUse" x1="21.0702" y1="32.6386" x2="-11.8327" y2="12.4837">
	<stop  offset="0" style="stop-color:#5B2ABD"/>
	<stop  offset="0.4706" style="stop-color:#8F69DA"/>
	<stop  offset="0.8194" style="stop-color:#B091EC"/>
	<stop  offset="1" style="stop-color:#BDA0F3"/>
</linearGradient>
<path style="fill:url(#SVGID_00000008107816854013699660000002742430099907469186_);" d="M9.81,44.12l0.62-0.71
	c3.09-3.55,7.37-5.84,12.04-6.46l0.02,0c0,0-2.45-3.5-1.91-7.58c0.64-4.85,5.2-7,5.2-7L23.46,17c-0.26-0.61-0.69-1.13-1.24-1.51
	l-7-4.81c-1.85-1.27-4.41-0.5-5.24,1.59l-2.74,6.85c-0.12,0.3-0.2,0.62-0.23,0.95L5.88,31.21c-0.05,0.53,0.01,1.06,0.19,1.55
	l2.51,6.91C9.11,41.12,9.52,42.61,9.81,44.12z"/>
<linearGradient id="SVGID_00000023983667431404938480000012064521149192974495_" gradientUnits="userSpaceOnUse" x1="18.0858" y1="11.1888" x2="28.3062" y2="5.5423">
	<stop  offset="0" style="stop-color:#7046C6"/>
	<stop  offset="1" style="stop-color:#5023AA"/>
</linearGradient>
<path style="fill:url(#SVGID_00000023983667431404938480000012064521149192974495_);" d="M21,6.27l1.31-3.43
	c0.78-2.05,3.03-3.14,5.13-2.49l5.51,1.71c4.02,1.25,3.86,6.99-0.22,8.01l-6.82,1.71C22.63,12.61,19.79,9.41,21,6.27z"/>
<g>
	
		<linearGradient id="SVGID_00000080897311374719229040000015005277688879742346_" gradientUnits="userSpaceOnUse" x1="36.4093" y1="64.2431" x2="33.5002" y2="41.8213">
		<stop  offset="0" style="stop-color:#8960DC"/>
		<stop  offset="1" style="stop-color:#5728B5"/>
	</linearGradient>
	<path style="fill:url(#SVGID_00000080897311374719229040000015005277688879742346_);" d="M57.94,42.86l-4.73,13.56
		c-0.31,0.9-0.98,1.63-1.85,2.03l-11.04,5.07c-0.82,0.38-1.76,0.42-2.61,0.13l-12.49-4.32c-1.18-0.41-2.39-0.74-3.62-0.99
		l-8.47-1.74c-1.63-0.34-2.8-1.77-2.8-3.44v-3.64c0-0.91-0.04-1.81-0.13-2.71c-0.09-0.9-0.21-1.79-0.38-2.68l0.62-0.71
		c5.19-5.95,12.05-6.46,12.05-6.46l0.93,0.21c8.16,1.81,16.69-0.5,22.81-6.19l1.85-1.72c0,0.01,0.01,0.01,0.01,0.01l0.15,0.25
		c1.64,2.82,3.75,5.34,6.24,7.45l2.43,2.07C58.01,39.97,58.42,41.49,57.94,42.86z"/>
</g>
<g>
	
		<linearGradient id="SVGID_00000109732008909201152790000009931275316925730450_" gradientUnits="userSpaceOnUse" x1="49.363" y1="28.4907" x2="44.2692" y2="52.1084">
		<stop  offset="0" style="stop-color:#804EE7"/>
		<stop  offset="1" style="stop-color:#B9A1ED"/>
	</linearGradient>
	<path style="fill:url(#SVGID_00000109732008909201152790000009931275316925730450_);" d="M56.9,39.03l-2.43-2.07
		c-2.49-2.11-4.6-4.63-6.24-7.45l-0.15-0.25c0,0-0.01-0.01-0.01-0.01l-1.85,1.72c-2.99,2.77-6.55,4.74-10.36,5.82l2.29,3.39
		c3.34,4.93,8,8.81,13.44,11.21l2.91,1.28l3.42-9.81C58.42,41.49,58.01,39.97,56.9,39.03z"/>
</g>
<g>
	
		<linearGradient id="SVGID_00000018223524738836209730000007248157853397467034_" gradientUnits="userSpaceOnUse" x1="10.6218" y1="55.8417" x2="35.0681" y2="38.7778">
		<stop  offset="0" style="stop-color:#7D53D1"/>
		<stop  offset="1" style="stop-color:#40139C"/>
	</linearGradient>
	<path style="fill:url(#SVGID_00000018223524738836209730000007248157853397467034_);" d="M24.82,59.19
		c4.82-6.21,7.41-13.83,7.42-21.65c-2.9,0.38-5.89,0.27-8.82-0.38l-0.93-0.21c0,0-6.87,0.5-12.05,6.46l-0.62,0.71
		c0.17,0.89,0.3,1.78,0.38,2.68c0.09,0.9,0.13,1.8,0.13,2.71v3.64c0,1.67,1.17,3.1,2.8,3.44l8.47,1.74
		C22.69,58.56,23.76,58.84,24.82,59.19z"/>
</g>
<g>
	
		<linearGradient id="SVGID_00000086691847929908274610000006871708159121614751_" gradientUnits="userSpaceOnUse" x1="10.8019" y1="14.6327" x2="21.0068" y2="25.5329">
		<stop  offset="0" style="stop-color:#7E4BE6"/>
		<stop  offset="1" style="stop-color:#C5AEF2"/>
	</linearGradient>
	<path style="fill:url(#SVGID_00000086691847929908274610000006871708159121614751_);" d="M25.77,22.37L23.46,17
		c-0.26-0.61-0.69-1.13-1.24-1.51l-7-4.81c-0.85-0.59-1.86-0.74-2.77-0.53l2.01,4.56c1.08,2.46,1.33,5.21,0.7,7.82l-0.02,0.08
		c-1.32,5.45,1.23,11.1,6.19,13.73l1.14,0.61l0.02,0c0,0-2.45-3.5-1.91-7.58C21.21,24.52,25.77,22.37,25.77,22.37z"/>
</g>
<g>
	
		<linearGradient id="SVGID_00000130642053113551768010000012951464573662069433_" gradientUnits="userSpaceOnUse" x1="25.7607" y1="5.0457" x2="39.7685" y2="8.8925">
		<stop  offset="0" style="stop-color:#D6C9F0"/>
		<stop  offset="1" style="stop-color:#8F61EA"/>
	</linearGradient>
	<path style="fill:url(#SVGID_00000130642053113551768010000012951464573662069433_);" d="M32.94,2.06l-5.51-1.71
		c-1.41-0.44-2.89-0.09-3.95,0.82c4.22,1.45,6.36,5.87,5.36,9.89l3.88-0.98C36.8,9.05,36.96,3.31,32.94,2.06z"/>
</g>
<g>
	
		<linearGradient id="SVGID_00000122706996835352377130000007119830829436914867_" gradientUnits="userSpaceOnUse" x1="32.6874" y1="0.5947" x2="19.5685" y2="6.9296">
		<stop  offset="0" style="stop-color:#C1ADED"/>
		<stop  offset="1" style="stop-color:#6A41BF"/>
	</linearGradient>
	<path style="fill:url(#SVGID_00000122706996835352377130000007119830829436914867_);" d="M31.97,1.98L32,1.77l-4.57-1.42
		c-2.1-0.65-4.34,0.44-5.13,2.49L21,6.27c-0.52,1.37-0.28,2.75,0.43,3.8l1.22-2.02c1.02-1.69,3.12-2.62,5.31-2.59
		C29.98,5.48,31.71,3.99,31.97,1.98z"/>
</g>
</svg>
