<?xml version="1.0" encoding="utf-8"?>
<!-- Generator: Adobe Adobe Illustrator 28.7.0, SVG Export Plug-In . SVG Version: 6.00 Build 0)  -->
<svg version="1.1" id="Layer_1" xmlns="http://www.w3.org/2000/svg" xmlns:xlink="http://www.w3.org/1999/xlink" x="0px" y="0px"
	 width="500px" height="500px" viewBox="0 0 500 500" style="enable-background:new 0 0 500 500;" xml:space="preserve">
<style type="text/css">
	.st0{fill:url(#SVGID_1_);}
	.st1{fill:url(#SVGID_00000075154009276080949980000005980553498566137476_);}
	.st2{fill:url(#SVGID_00000067203418807724988450000008495543926767513513_);}
	.st3{fill:url(#SVGID_00000163793566287968167700000008488719630109843074_);}
	.st4{fill:url(#SVGID_00000125575262525722654060000011003806915347037840_);}
	.st5{fill:url(#SVGID_00000176750575401326266380000006366079441229240245_);}
	.st6{fill:url(#SVGID_00000120530818942960858340000006419779316940208554_);}
	.st7{fill:url(#SVGID_00000110464765515793602600000007764765554592219574_);}
	.st8{fill:url(#SVGID_00000141413673468009264140000008916675076679569343_);}
	.st9{fill:url(#SVGID_00000070095468558073335770000014516533378218669757_);}
	.st10{fill:url(#SVGID_00000067237863837366459550000017988732021199339157_);}
</style>
<linearGradient id="SVGID_1_" gradientUnits="userSpaceOnUse" x1="160.7991" y1="292.5905" x2="392.6052" y2="264.3951">
	<stop  offset="0" style="stop-color:#6A00FF"/>
	<stop  offset="1" style="stop-color:#984FFF"/>
</linearGradient>
<path class="st0" d="M91.9,88.31l-21.85,54.72c-0.97,2.42-1.59,4.96-1.85,7.55l-9.04,88.93c-0.43,4.2,0.1,8.43,1.54,12.4
	l20.05,55.15c9.16,25.19,13.84,51.78,13.84,78.58v29.08c0,13.29,9.34,24.75,22.36,27.43l67.66,13.91c9.8,2.01,19.45,4.66,28.9,7.93
	l99.76,34.52c6.82,2.36,14.28,2,20.83-1.01l88.14-40.45c6.92-3.18,12.25-9.03,14.76-16.22l37.81-108.27
	c3.82-10.93,0.51-23.08-8.31-30.57l-19.42-16.5c-19.86-16.87-36.71-37-49.83-59.52l-1.15-1.98c-6-10.3-17.87-15.67-29.57-13.39
	l-0.45,0.09c-36.15,7.07-73.47,5.36-108.81-5l-3.45-1.01c-14.88-4.36-27.05-15.14-33.16-29.39l-21.14-49.24
	c-2.09-4.86-5.51-9.04-9.87-12.03l-55.89-38.4C118.96,65.45,98.55,71.64,91.9,88.31z"/>
<linearGradient id="SVGID_00000072986829336093768520000011708485781971904188_" gradientUnits="userSpaceOnUse" x1="30.3382" y1="255.0991" x2="206.9988" y2="141.9772">
	<stop  offset="0" style="stop-color:#8E3DFF"/>
	<stop  offset="0.4258" style="stop-color:#AB71FF"/>
	<stop  offset="0.8041" style="stop-color:#C199FF"/>
	<stop  offset="1" style="stop-color:#CAA8FF"/>
</linearGradient>
<path style="fill:url(#SVGID_00000072986829336093768520000011708485781971904188_);" d="M90.52,342.6l4.94-5.67
	c24.68-28.33,58.86-46.66,96.12-51.54l0.13-0.02c0,0-19.6-27.93-15.27-60.52c5.14-38.71,41.5-55.89,41.5-55.89l-18.42-42.91
	c-2.09-4.86-5.51-9.04-9.87-12.03l-55.89-38.4c-14.8-10.17-35.2-3.98-41.86,12.7l-21.85,54.72c-0.97,2.42-1.59,4.96-1.85,7.55
	l-9.04,88.93c-0.43,4.2,0.1,8.43,1.54,12.4l20.05,55.15C84.97,318.65,88.22,330.53,90.52,342.6z"/>
<linearGradient id="SVGID_00000047053911841659044880000005561776242293665165_" gradientUnits="userSpaceOnUse" x1="125.7922" y1="63.0198" x2="184.7011" y2="30.474">
	<stop  offset="0" style="stop-color:#6A00FF"/>
	<stop  offset="1" style="stop-color:#B886FF"/>
</linearGradient>
<path style="fill:url(#SVGID_00000047053911841659044880000005561776242293665165_);" d="M142.57,34.64l7.54-19.75
	c4.52-11.83,17.45-18.12,29.55-14.36l31.76,9.88c23.16,7.2,22.24,40.28-1.28,46.19l-39.3,9.88C152,71.21,135.64,52.78,142.57,34.64z
	"/>
<g>
	
		<linearGradient id="SVGID_00000005266334106991952970000017275159291650245262_" gradientUnits="userSpaceOnUse" x1="318.5632" y1="501.2281" x2="261.1261" y2="271.6146">
		<stop  offset="0" style="stop-color:#6A00FF"/>
		<stop  offset="1" style="stop-color:#672BBA"/>
	</linearGradient>
	<path style="fill:url(#SVGID_00000005266334106991952970000017275159291650245262_);" d="M474.82,332.56l-37.8,108.27
		c-2.51,7.19-7.84,13.04-14.76,16.22l-88.14,40.45c-6.56,3.01-14.02,3.37-20.84,1.01l-99.76-34.52c-9.45-3.27-19.11-5.92-28.9-7.93
		l-67.66-13.91c-13.02-2.68-22.36-14.13-22.36-27.43v-29.07c0-7.24-0.34-14.46-1.03-21.65c-0.68-7.18-1.7-14.32-3.05-21.4l4.94-5.68
		c41.41-47.53,96.24-51.55,96.24-51.55l7.45,1.65c65.14,14.46,133.22-4.01,182.12-49.41l14.78-13.72c0.02,0.04,0.04,0.07,0.06,0.1
		l1.16,1.98c13.12,22.52,29.97,42.65,49.83,59.52l19.42,16.5C475.34,309.48,478.64,321.63,474.82,332.56z"/>
</g>
<g>
	
		<linearGradient id="SVGID_00000047045213461240144660000013780927379767498906_" gradientUnits="userSpaceOnUse" x1="298.5787" y1="317.3813" x2="476.3896" y2="317.3813">
		<stop  offset="0" style="stop-color:#6020BA"/>
		<stop  offset="1" style="stop-color:#883BF5"/>
	</linearGradient>
	<path style="fill:url(#SVGID_00000047045213461240144660000013780927379767498906_);" d="M466.52,301.99l-19.42-16.5
		c-19.86-16.87-36.71-37-49.83-59.52l-1.16-1.98c-0.02-0.03-0.04-0.06-0.06-0.1l-14.78,13.72c-23.85,22.15-52.28,37.86-82.69,46.5
		l18.31,27.06c26.63,39.35,63.84,70.38,107.35,89.49l23.24,10.21l27.34-78.31C478.64,321.63,475.34,309.48,466.52,301.99z"/>
</g>
<g>
	
		<linearGradient id="SVGID_00000094595324176960592480000017137642827033964965_" gradientUnits="userSpaceOnUse" x1="90.52" y1="374.1529" x2="269.596" y2="374.1529">
		<stop  offset="0" style="stop-color:#6A00FF"/>
		<stop  offset="1" style="stop-color:#A15EFF"/>
	</linearGradient>
	<path style="fill:url(#SVGID_00000094595324176960592480000017137642827033964965_);" d="M210.39,462.94
		c38.45-49.55,59.2-110.4,59.21-172.84c-23.18,3.05-47,2.13-70.45-3.07l-7.45-1.65c0,0-54.83,4.02-96.24,51.55l-4.94,5.68
		c1.35,7.08,2.37,14.22,3.05,21.4c0.69,7.19,1.03,14.41,1.03,21.65v29.07c0,13.3,9.34,24.75,22.36,27.43l67.66,13.91
		C193.33,457.85,201.94,460.15,210.39,462.94z"/>
</g>
<g>
	
		<linearGradient id="SVGID_00000124842702757089932150000007159028420194226874_" gradientUnits="userSpaceOnUse" x1="111.6026" y1="178.0362" x2="217.9396" y2="178.0362">
		<stop  offset="0" style="stop-color:#5900D6"/>
		<stop  offset="1" style="stop-color:#974DFF"/>
	</linearGradient>
	<path style="fill:url(#SVGID_00000124842702757089932150000007159028420194226874_);" d="M217.94,168.96l-18.42-42.91
		c-2.09-4.86-5.51-9.04-9.87-12.03l-55.89-38.4c-6.83-4.69-14.84-5.89-22.16-4.2l16.02,36.45c8.64,19.65,10.59,41.59,5.55,62.45
		l-0.15,0.61c-10.51,43.54,9.83,88.66,49.41,109.62l9.13,4.84l0.13-0.02c0,0-19.6-27.93-15.27-60.52
		C181.58,186.14,217.94,168.96,217.94,168.96z"/>
</g>
<g>
	
		<linearGradient id="SVGID_00000077291786643595790630000011283501791265397382_" gradientUnits="userSpaceOnUse" x1="225.4247" y1="17.4674" x2="155.492" y2="38.101">
		<stop  offset="0" style="stop-color:#9246FB"/>
		<stop  offset="1" style="stop-color:#6B17E2"/>
	</linearGradient>
	<path style="fill:url(#SVGID_00000077291786643595790630000011283501791265397382_);" d="M211.41,10.41l-31.76-9.88
		c-8.15-2.54-16.68-0.5-22.76,4.72c24.32,8.38,36.67,33.81,30.88,56.98l22.37-5.62C233.66,50.69,234.57,17.61,211.41,10.41z"/>
</g>
<g>
	
		<linearGradient id="SVGID_00000080172957648292919340000016366153589753947026_" gradientUnits="userSpaceOnUse" x1="193.6311" y1="44.9966" x2="98.6924" y2="-19.8008">
		<stop  offset="0" style="stop-color:#6A00FF"/>
		<stop  offset="1" style="stop-color:#BC8EFF"/>
	</linearGradient>
	<path style="fill:url(#SVGID_00000080172957648292919340000016366153589753947026_);" d="M205.84,9.92l0.16-1.2l-26.34-8.19
		c-12.09-3.76-25.03,2.52-29.55,14.36l-7.54,19.75c-3.01,7.89-1.62,15.83,2.47,21.9l7.01-11.64c5.86-9.73,17.97-15.11,30.59-14.94
		C194.34,30.11,204.33,21.53,205.84,9.92z"/>
</g>
</svg>
